<?xml version="1.0" ?><svg viewBox="0 0 64 64" xmlns="http://www.w3.org/2000/svg"><path d="M63.852 35.54c-.407-6.863-.724-13.817-1.673-14.4-.95-.583-10.627-.45-11.034-.314-.407.135.09-3.903-.045-5.518s-.542-3.14-2.803-3.23c-2.26-.09-23.378-1.032-26.724-1.077s-5.38.988-6.33 1.66c-.95.674-.59 7.27-.59 7.27s-6.058-.315-9.313-.27c-3.256.045-5.02 2.288-5.02 3.68 0 1.39-.36 21.937-.316 24.898.045 2.96 1.266 4.352 1.944 4.62.678.27 8.32.09 19.263 0 10.944-.09 36.356-.134 38.572-.178 2.216-.045 3.572-1.032 3.753-2.243.18-1.213.724-8.032.317-14.896zM17.412 13.65c.68-.538 10.31-.314 16.506-.135 6.195.18 14.153.494 14.696 1.032.543.538.678 6.056.362 6.1-.317.046-3.527.18-3.663-.134-.136-.313.27-3.678-.362-4.17-.632-.495-19.58-.674-21.206-.63-1.628.046-3.346.27-3.663 1.84-.316 1.57-.044 2.288-.27 2.378-.226.09-2.623.36-2.85-.135-.067-.146-.225-5.606.453-6.145zm25.323 6.46s-19.76-.045-20.62-.27c0 0-.09-1.704.318-1.928.407-.224 19.625-.18 20.167.18.542.36.135 2.018.135 2.018zm18.54 30.372c-.18-.045-2.532-3.768-2.713-3.768s-.86.18-.77.718 2.08 3.095 1.9 3.095c-.18 0-1.81-.09-1.81-.09s-.994-2.512-1.265-2.647c-.27-.135-.95.09-.95.45 0 .358 1.266 2.377 1.085 2.422-.18.045-1.402-.135-1.402-.135s-.86-1.75-1.085-1.75c-.226 0-1.04.494-.95.673.09.18.588 1.077.588 1.077s-1.31.135-1.402 0c-.09-.135-.903-1.794-1.13-1.884-.225-.09-.858.046-.858.046s1.04 1.57.678 1.84c-.362.268-23.92.178-31.2.223-7.28.044-16.506.313-17.048-.36-.542-.673-.044-26.423.182-27.455.11-.5 2.894-.987 7.144-1.077 4.25-.09 33.733.897 39.837.897 6.104 0 9.767.135 10.4.45.633.313 1.085 13.682 1.13 17.585.045 3.903-.09 5.428-.09 5.428l-.904-1.032s-.813.494-.632.718c.18.224 1.628 2.378 1.718 2.87.09.495-.27 1.75-.45 1.706zm-42.1-31.673c.238 0 .137-2.725.137-3.028 0-.304 2.035-.17 2.34-.304.305-.135.136-.774-.034-1.01-.17-.235-3.143-.26-3.39.068-.204.27-.34 3.735-.272 4.07.067.338.983.203 1.22.203zM38.1 40.98c.678-.302 0-1.244-.068-1.446s-9.21-.738-9.292-.337c-.068.337-.27 1.447-.136 1.65.136.2 8.818.436 9.496.134zm-6.952 2.22c-.136.237-.17 4.24-.034 4.442s3.968.27 4.443 0c.475-.27.136-4.14-.034-4.374-.17-.235-4.284-.224-4.375-.067zm3.324 3.164c-.44.236-2.204.404-2.204.168 0-.236-.034-1.716.068-1.884.22-.365 1.933-.135 2-.034.068.1.576 1.514.136 1.75zm5.765-14.737c.203-.168.51-3.6.034-4.172-.474-.572-14.31-1.043-14.684-.303-.17.336-.27 3.567-.068 4.273.204.707 14.515.37 14.72.202zm-2.51 4.475c.27-.1.102-1.245 0-1.548-.102-.303-9.61-.688-9.903-.303-.102.136-.136 1.515-.034 1.717.102.202 9.666.236 9.937.135zm-24.7-8.232c-3.165.493-6.873 2.557-7.913 8.793-1.04 6.236 2.758 10.318 8.998 10.812s11.17-3.544 10.355-10.498c-.814-6.954-5.36-10.055-11.44-9.107zm8.05 4.093c.202.067.95 1.01.78 1.245-.17.236-.61.942-.815.774-.203-.168-.882-1.245-.814-1.38.054-.108.644-.706.848-.64zM9.68 38.02c-.1.235-1.457 1.75-1.66 1.58-.204-.167-1.052-1.446-1.052-1.58 0-.143 1.323-1.716 1.628-1.514.305.2 1.186 1.278 1.085 1.514zm-.27-2.49c-.06-.09 1.118-1.346 1.356-1.28.237.068 1.05 1.246 1.017 1.347-.034.1-1.05 1.413-1.255 1.38-.203-.034-1.05-1.346-1.12-1.447zm1.05 3.566c.17.067 1.222 1.245 1.086 1.514-.136.27-1.12 1.48-1.323 1.38-.203-.102-1.255-1.38-1.29-1.515-.04-.166 1.358-1.446 1.528-1.38zm.815-1.144c.025-.098 1.153-1.245 1.29-1.245.135 0 1.254 1.38 1.254 1.38s-1.324 1.58-1.493 1.513c-.17-.066-1.086-1.513-1.052-1.648zm3.46 1.212c.27.202.643.84.643.84s-1.153 1.75-1.29 1.75c-.135 0-.847-1.076-.95-1.177.002 0 1.324-1.615 1.596-1.413zm.168-2.12c-.237-.1-1.458-1.548-1.492-1.65 0 0 1.968-2.253 2.17-2.152.204.1 1.154 1.514 1.12 1.65-.033.133-1.56 2.253-1.797 2.152zm2.68-.774c.136 0 .814.606.746.942-.07.336-1.663 1.985-1.798 1.985s-.916-1.21-.916-1.21c.203-.304 1.83-1.717 1.967-1.717zm1.73 1.985c.1.034 1.016.673.813 1.077s-2 1.985-2.103 1.918c-.102-.067-.814-1.245-.814-1.245.067-.202 2-1.783 2.102-1.75zm-.95-3.364c-.063-.123 1.017-1.042 1.22-.975.204.067.61 1.043.578 1.178-.033.135-.745 1.01-.915.942-.17-.068-.815-1.01-.882-1.144zm1.66 2.053l.85-.707.813 1.01s-.51.907-.678.907c-.17 0-.984-1.21-.984-1.21zm-1.593-7.066c.22-.163 1.967.908 1.73 1.178-.237.27-.678.84-.882.64-.203-.203-.983-1.717-.848-1.818zm-1.017 1.346c.407.202 1.357 1.178 1.255 1.346-.102.167-.848 1.278-1.017 1.244-.17-.034-1.322-1.58-1.322-1.58s.678-1.213 1.085-1.01zm-1.458-2.153c.102 0 .712.84.712.976 0 .135-1.05 1.077-1.187.908-.136-.168-.712-.875-.712-1.01 0-.15 1.085-.874 1.187-.874zm-2.07 1.95c.34.17 1.052.81.85 1.145-.204.336-1.934 2.456-2.104 2.254s-1.118-1.11-1.05-1.246c0 0 1.967-2.32 2.306-2.153zm-1.446-1.67c.496 0 .542.493.496.628-.045.135-1.854 2.11-2.08 1.974-.226-.135-1.085-1.122-1.13-1.256-.092-.273 2.216-1.346 2.713-1.346zm-3.506 2.445c.402-.183 1.22 1.28 1.085 1.38-.137.1-1.493 1.514-1.595 1.48-.102-.034-.984-.606-.984-.908.002-.303.68-1.582 1.494-1.952zM6.968 34.89c.14-.138.577.674.44.876-.135.202-.508.942-.61.84-.102-.1-.102-1.446.17-1.715zm-.136 6.393c-.136-.135-.305-.47-.407-.673 0 0 .034-.84.17-.84s.746.605.678.975c-.068.37-.305.673-.44.538zm1.797 2.625c-.204-.1-1.12-1.144-1.222-1.28-.086-.113.678-1.076.916-.874S9.444 42.83 9.34 43.1c-.1.27-.507.91-.71.808zm2.373 1.716c-.102-.034-1.017-.47-1.12-.64-.1-.167.34-.84.374-.94.077-.23 1.187 1.244 1.085 1.378-.1.134-.237.235-.34.202zm.95-1.38c-.102-.1-.814-1.01-.882-1.312-.036-.167.95-1.346 1.222-1.245.27.1.916.908.882 1.11-.034.202-1.12 1.548-1.22 1.447zm1.797 1.75c-.102 0-.644-.808-.712-1.01-.072-.213.848-1.278 1.085-1.143.237.136.78 1.01.746 1.145-.035.134-1.018 1.01-1.12 1.01zm2.035-2.322c-.102-.034-.848-.942-.848-1.178 0-.29 1.22-1.312 1.39-1.21.17.1.678.672.576 1.008-.1.337-1.016 1.414-1.118 1.38zm1.628 2.356c-.068-.168-1.153-1.245-1.085-1.346.147-.22 1.29-1.447 1.458-1.413.17.033 1.12 1.008 1.017 1.244-.1.235-1.322 1.682-1.39 1.514zm2.306-2.66c-.17-.033-1.086-1.278-1.086-1.278.17-.27 2.07-1.85 2.238-1.817.17.034.916.807.746 1.11-.17.304-1.73 2.02-1.9 1.986zm.95 1.38l-.205-.336c.237-.235 1.73-1.817 1.73-1.817s.34.1.305.236c-.034.136-1.83 1.92-1.83 1.92zm2-4.407c-.136 0-.746-1.042-.746-1.177 0-.172.44-.64.644-.538.203.1.61 1.043.61 1.144 0 .1-.373.57-.508.57zm.135-3.8c-.17-.035-1.085-1.515-1.05-1.616 0 0 .745-.74.88-.64.137.102.713 1.515.68 1.75-.035.236-.34.54-.51.505zm2.272 6.964c-.136.236-.17 4.475-.102 4.744.068.27 3.663.1 3.9 0 .237-.1.203-4.44.034-4.677-.17-.234-3.617-.44-3.833-.066zm2.374 3.432c-.135.1-1.05.27-1.152-.034-.102-.303-.237-1.783-.068-1.95.13-.13 1.357.066 1.357.066s0 1.817-.136 1.918zm10.006-3.466c-.136.236-.136 3.903-.068 4.14.068.235 4.24.033 4.24.033s.067-3.903-.103-4.105c-.17-.202-3.843-.46-4.07-.068zm1.153 2.995c-.103-.168 0-1.716.067-1.85.136-.27 1.526.1 1.526.1l.034 1.85s-1.526.068-1.628-.1zm21.94-9.488c-.813-6.954-5.358-10.055-11.44-9.107-3.164.493-6.872 2.557-7.912 8.793-1.04 6.236 2.758 10.318 8.998 10.812s11.17-3.545 10.355-10.498zm-3.39-5.014c.203.067.95 1.01.78 1.245-.17.236-.61.942-.814.774-.203-.168-.882-1.245-.814-1.38.055-.108.644-.706.848-.64zM45.765 38.02c-.102.235-1.458 1.75-1.662 1.58-.203-.167-1.05-1.446-1.05-1.58 0-.143 1.322-1.716 1.627-1.514.305.2 1.187 1.278 1.085 1.514zm-.272-2.49c-.06-.09 1.12-1.346 1.357-1.28.237.068 1.05 1.246 1.017 1.347-.034.1-1.05 1.413-1.255 1.38-.203-.034-1.05-1.346-1.12-1.447zm1.052 3.566c.17.067 1.22 1.245 1.085 1.514-.136.27-1.12 1.48-1.323 1.38-.203-.102-1.255-1.38-1.29-1.515-.04-.166 1.358-1.446 1.528-1.38zm.814-1.144c.024-.098 1.152-1.245 1.288-1.245s1.255 1.38 1.255 1.38-1.323 1.58-1.492 1.513c-.17-.066-1.085-1.513-1.05-1.648zm3.458 1.212c.27.202.644.84.644.84s-1.153 1.75-1.29 1.75c-.135 0-.847-1.076-.95-1.177.002 0 1.325-1.615 1.596-1.413zm.17-2.12c-.238-.1-1.46-1.548-1.493-1.65 0 0 1.967-2.253 2.17-2.152.204.1 1.154 1.514 1.12 1.65-.034.133-1.56 2.253-1.798 2.152zm2.68-.774c.135 0 .813.606.745.942-.068.336-1.662 1.985-1.797 1.985-.136 0-.916-1.21-.916-1.21.203-.304 1.83-1.717 1.967-1.717zm1.728 1.985c.102.034 1.017.673.814 1.077-.203.404-2 1.985-2.103 1.918-.102-.067-.814-1.245-.814-1.245.068-.202 2.002-1.783 2.103-1.75zm-.95-3.364c-.06-.123 1.018-1.042 1.222-.975.203.067.61 1.043.577 1.178-.034.135-.746 1.01-.916.942-.17-.068-.815-1.01-.883-1.144zm1.662 2.053l.848-.707.814 1.01s-.51.907-.678.907c-.17 0-.984-1.21-.984-1.21zm-1.593-7.066c.22-.163 1.967.908 1.73 1.178-.237.27-.678.84-.882.64-.204-.203-.984-1.717-.848-1.818zm-1.018 1.346c.407.202 1.357 1.178 1.255 1.346-.102.167-.848 1.278-1.017 1.244-.17-.034-1.323-1.58-1.323-1.58s.678-1.213 1.085-1.01zM52.04 29.07c.1 0 .71.84.71.976 0 .135-1.05 1.077-1.186.908-.136-.168-.712-.875-.712-1.01 0-.15 1.085-.874 1.187-.874zm-2.07 1.95c.34.17 1.05.81.848 1.145-.203.336-1.933 2.456-2.103 2.254-.17-.203-1.12-1.11-1.05-1.246 0 0 1.966-2.32 2.305-2.153zm-1.447-1.67c.497 0 .543.493.497.628-.045.135-1.854 2.11-2.08 1.974-.226-.135-1.085-1.122-1.13-1.256-.092-.273 2.216-1.346 2.713-1.346zm-3.504 2.445c.4-.183 1.22 1.28 1.084 1.38-.136.1-1.492 1.514-1.594 1.48-.102-.034-.984-.606-.984-.908 0-.303.68-1.582 1.493-1.952zM43.05 34.89c.14-.138.577.674.44.876-.135.202-.508.942-.61.84-.102-.1-.102-1.446.17-1.715zm-.136 6.393c-.136-.135-.305-.47-.407-.673 0 0 .033-.84.17-.84.135 0 .745.605.677.975-.068.37-.305.673-.44.538zm1.797 2.625c-.203-.1-1.12-1.144-1.22-1.28-.087-.113.677-1.076.915-.874.237.202 1.12 1.077 1.017 1.346-.1.27-.508.91-.712.808zm2.374 1.716c-.102-.034-1.017-.47-1.12-.64-.1-.167.34-.84.374-.94.078-.23 1.188 1.244 1.086 1.378-.1.134-.237.235-.34.202zm.95-1.38c-.102-.1-.814-1.01-.882-1.312-.038-.167.95-1.346 1.22-1.245.272.1.917.908.883 1.11-.034.202-1.12 1.548-1.22 1.447zm1.797 1.75c-.102 0-.644-.808-.712-1.01-.072-.213.848-1.278 1.085-1.143.237.136.78 1.01.746 1.145-.033.134-1.017 1.01-1.12 1.01zm2.035-2.322c-.103-.034-.85-.942-.85-1.178 0-.29 1.222-1.312 1.39-1.21.17.1.68.672.578 1.008-.1.337-1.017 1.414-1.12 1.38zm1.627 2.356c-.068-.168-1.153-1.245-1.085-1.346.147-.22 1.29-1.447 1.458-1.413.17.033 1.12 1.008 1.017 1.244-.1.235-1.322 1.682-1.39 1.514zm2.306-2.66c-.17-.033-1.085-1.278-1.085-1.278.17-.27 2.07-1.85 2.238-1.817.17.034.916.807.746 1.11-.17.304-1.73 2.02-1.9 1.986zm.95 1.38l-.203-.336c.237-.235 1.73-1.817 1.73-1.817s.34.1.305.236c-.035.136-1.832 1.92-1.832 1.92zm2-4.407c-.135 0-.745-1.042-.745-1.177 0-.172.44-.64.644-.538.203.1.61 1.043.61 1.144 0 .1-.373.57-.508.57zm.136-3.8c-.17-.035-1.086-1.515-1.052-1.616 0 0 .746-.74.882-.64.136.102.712 1.515.678 1.75-.034.236-.34.54-.51.505zM6.695 28.6c.27-.102 0-2.895-.034-3.063-.034-.168 1.696-.37 2-.336.306.035.204-.975.204-1.076 0-.1-3.12-.1-3.39-.067-.272.033-.136 4.575-.136 4.575.237.337 1.085.068 1.356-.033z"/></svg>