<?xml version="1.0" ?><!DOCTYPE svg  PUBLIC '-//W3C//DTD SVG 1.1//EN'  'http://www.w3.org/Graphics/SVG/1.1/DTD/svg11.dtd'><svg enable-background="new 0 0 500 500" height="500px" id="Layer_1" version="1.1" viewBox="0 0 500 500" width="500px" xml:space="preserve" xmlns="http://www.w3.org/2000/svg" xmlns:xlink="http://www.w3.org/1999/xlink"><path clip-rule="evenodd" d="M31.949,418.081c0,12.536,10.177,22.716,22.713,22.716  c10.993,0,20.167-7.81,22.261-18.173h0.453c0-9.991,8.181-18.172,18.173-18.172c9.989,0,18.17,8.181,18.17,18.172v9.087  c0,20.078,16.264,36.34,36.342,36.34h36.34c20.079,0,36.343-16.262,36.343-36.34V295.427c0-20.079-16.264-36.341-36.343-36.341  h-36.34c-20.079,0-36.342,16.262-36.342,36.341v9.086c0,9.991-8.181,18.172-18.17,18.172c-9.992,0-18.173-8.181-18.173-18.172V250  c0-95.309,77.316-172.625,172.625-172.625S422.624,154.691,422.624,250v54.513c0,9.991-8.18,18.172-18.172,18.172  c-9.987,0-18.168-8.181-18.168-18.172v-9.086c0-20.079-16.267-36.341-36.346-36.341h-36.34c-20.078,0-36.341,16.262-36.341,36.341  v136.284c0,20.078,16.263,36.34,36.341,36.34h36.34c20.079,0,36.346-16.262,36.346-36.34v-9.087c0-9.991,8.181-18.172,18.168-18.172  c9.992,0,18.172,8.181,18.172,18.172h0.451c2.086,10.363,11.271,18.173,22.265,18.173c12.536,0,22.711-10.18,22.711-22.716V250  c0-120.471-97.578-218.051-218.051-218.051c-120.471,0-218.051,97.58-218.051,218.051V418.081z" fill="#010101" fill-rule="evenodd"/></svg>